<svg width="292" height="24" viewBox="0 0 292 24" fill="none" xmlns="http://www.w3.org/2000/svg">
<path d="M30.7651 17.8429C30.7651 12.7813 30.7863 7.87841 30.7439 2.96499C30.7439 2.18138 30.9557 1.95901 31.7394 1.87429C35.679 1.46131 39.3539 2.11785 42.7322 4.27806C45.7187 6.18413 48.6734 8.15373 51.0775 10.7587C55.2818 15.3227 60.2911 18.15 66.6136 18.3406C67.3761 18.3618 67.5985 18.6265 67.5561 19.3678C67.4926 20.522 67.482 21.6974 67.5561 22.8517C67.6197 23.6776 67.2808 23.8894 66.5394 23.9424C62.6422 24.2177 58.9885 23.5294 55.6525 21.3903C51.9776 19.0395 48.737 16.1486 45.5281 13.2154C43.1982 11.0764 40.6565 9.24443 37.6488 8.14315C36.6428 7.77252 36.6322 7.78311 36.6322 8.83145C36.6322 13.5119 36.611 18.203 36.6533 22.8834C36.6533 23.6353 36.4415 23.8576 35.7002 23.9106C30.3732 24.2283 25.6605 22.6399 21.4244 19.4843C18.7132 17.4617 16.4469 14.9521 13.9687 12.6648C11.8295 10.6952 9.41486 9.13854 6.65076 8.15374C5.51759 7.74075 5.51759 7.74075 5.51759 8.91616C5.51759 13.5013 5.49641 18.0971 5.52818 22.6822C5.52818 23.5294 5.35874 23.9 4.4056 23.8259C3.20889 23.7412 2.00158 23.7835 0.804868 23.8153C0.222396 23.8365 0 23.667 0 23.0634C0.0211808 16.2439 0.0211808 9.42445 0 2.60495C0 2.03313 0.232987 1.92724 0.730736 1.8637C4.59623 1.40837 8.20755 2.03313 11.5329 4.18275C15.3349 6.63947 18.745 9.56211 22.081 12.6012C24.3473 14.6661 26.8043 16.4451 29.7272 17.4935C30.0238 17.5994 30.3309 17.6841 30.7439 17.8217" fill="#28849B"/>
<path d="M92.3162 5.78176C92.3162 5.17817 92.0832 5.01933 91.5008 5.02992C90.2723 5.07228 89.0332 5.09345 87.8047 5.02992C87.0634 4.98756 86.7351 5.22053 86.5233 5.9406C85.5066 9.44565 84.4476 12.9295 83.3885 16.4134C82.8802 18.0971 82.3613 19.7702 81.7788 21.6339C81.6199 21.1468 81.5352 20.8715 81.4505 20.5962C79.9678 15.6827 78.464 10.7799 77.0025 5.86647C76.8119 5.23112 76.5471 4.99815 75.8694 5.02992C74.6409 5.09345 73.4018 5.09345 72.1733 5.02992C71.4214 4.99815 71.1884 5.19935 71.1884 5.98296C71.2202 11.1823 71.2096 16.3816 71.2096 21.581C71.2096 23.8682 71.2096 23.8365 73.4653 23.8682C74.1855 23.8682 74.3973 23.6988 74.3973 22.9576C74.3655 18.1712 74.3761 13.3954 74.3761 8.61968V7.57135C74.4502 7.57135 74.5244 7.57135 74.5879 7.57135C76.1129 12.4212 77.6485 17.2817 79.1736 22.1316C79.7137 23.8471 79.7031 23.8577 81.4929 23.8577C81.9165 23.8577 82.3401 23.8153 82.7637 23.8577C83.5368 23.9635 83.8863 23.6776 84.1193 22.9046C85.6549 17.9488 87.2434 13.0036 88.8108 8.04787C88.8955 7.79372 88.8532 7.46546 89.2238 7.34897V22.5869C89.2238 22.8093 89.245 23.0423 89.2238 23.2647C89.1709 23.7518 89.4356 23.9318 89.8593 23.8365C90.6641 23.6565 91.6279 24.3236 92.295 23.4023C92.3268 23.36 92.295 23.2752 92.295 23.2117C92.295 17.3982 92.295 11.5847 92.295 5.77117" fill="#062838"/>
<path d="M137.379 12.6859C137.357 11.087 136.743 9.63622 135.133 9.17029C132.56 8.41845 129.934 8.21726 127.455 9.77388C127.657 8.69378 126.979 8.60906 126.142 8.70437C125.983 8.72555 125.814 8.72555 125.655 8.70437C124.712 8.55612 124.384 8.85262 124.405 9.87978C124.479 13.9143 124.437 17.9594 124.437 21.9939C124.437 23.8576 124.437 23.8047 126.322 23.8788C127.233 23.9106 127.445 23.6247 127.434 22.7563C127.381 19.3995 127.402 16.0321 127.424 12.6753C127.424 11.1717 127.646 10.9917 129.118 10.9917C130.315 10.9917 131.522 10.9917 132.719 10.9917C134.201 10.9917 134.477 11.2564 134.477 12.7389C134.477 15.7462 134.477 18.743 134.477 21.7504C134.477 23.9423 134.477 23.9318 136.69 23.8788C137.241 23.8682 137.41 23.72 137.41 23.1587C137.389 19.6749 137.431 16.1804 137.389 12.6859" fill="#062838"/>
<path d="M287.37 16.0851C285.697 15.5768 283.992 15.1744 282.308 14.7403C280.349 14.2426 280.391 14.2426 280.349 12.2624C280.328 11.2776 280.719 10.9493 281.662 10.9705C283.897 11.0022 286.142 10.9281 288.376 10.9705C288.991 10.9811 289.213 10.8328 289.149 10.2398C289.118 9.92214 289.128 9.59387 289.149 9.27619C289.171 8.86321 289.012 8.70437 288.588 8.70437C286.121 8.72555 283.653 8.65143 281.185 8.7785C278.961 8.88439 277.638 10.3139 277.447 12.5059C277.225 15.0791 277.86 15.9686 280.444 16.6357C281.821 16.9852 283.208 17.324 284.596 17.6311C286.798 18.1288 286.798 18.1182 286.767 20.342C286.756 21.475 286.629 21.6021 285.453 21.6021C283.176 21.6021 280.91 21.6233 278.633 21.5915C277.966 21.5915 277.659 21.761 277.754 22.4599C277.786 22.6822 277.786 22.9152 277.754 23.1376C277.68 23.7306 277.913 23.9318 278.517 23.9106C279.713 23.8682 280.921 23.9 282.117 23.9V23.8788C283.155 23.8788 284.193 23.9106 285.231 23.8788C288.323 23.7835 289.679 22.3646 289.679 19.2619C289.679 17.3346 289.234 16.6781 287.349 16.1063" fill="#062838"/>
<path d="M174.339 5.01932C170.018 5.09345 165.697 5.05109 161.377 5.05109C159.756 5.05109 159.799 5.05109 159.799 6.65007C159.799 7.27484 160.01 7.4125 160.582 7.39132C162.044 7.35955 163.505 7.43368 164.967 7.35955C165.803 7.3172 165.973 7.6137 165.973 8.3973C165.93 12.7601 165.952 17.1229 165.952 21.4857C165.952 23.953 165.952 23.9212 168.398 23.8788C169.033 23.8788 169.15 23.6353 169.139 23.0846C169.118 20.6279 169.129 18.1712 169.129 15.7145C169.129 13.2578 169.15 10.7375 169.118 8.24905C169.118 7.59252 169.266 7.33837 169.976 7.35955C171.437 7.4125 172.91 7.29602 174.36 7.40191C175.441 7.47604 175.282 6.85127 175.282 6.20532C175.282 5.55937 175.409 4.99814 174.339 5.01932Z" fill="#062838"/>
<path d="M254.032 10.9811C254.911 11.0129 255.79 10.9281 256.658 11.0023C257.58 11.087 257.876 10.7905 257.876 9.84804C257.876 8.90559 257.611 8.55615 256.679 8.69381C256.362 8.74675 256.033 8.69381 255.705 8.69381C253.354 8.69381 253.365 8.69381 253.354 6.40652C253.343 4.89226 253.65 5.08286 251.945 5.02992C251.374 5.00874 251.13 5.20994 251.056 5.77117C250.982 6.31122 250.749 6.83009 250.706 7.37015C250.622 8.46084 250.092 8.87383 249.012 8.71499C248.737 8.67263 248.249 8.52438 248.186 8.94795C248.091 9.54095 248.048 10.2081 248.218 10.7693C248.355 11.2141 248.959 10.9281 249.361 10.9917C249.425 10.9917 249.488 10.9917 249.552 10.9917C250.187 10.907 250.399 11.1717 250.389 11.8071C250.346 13.1625 250.378 14.5179 250.378 15.8733C250.378 17.197 250.357 18.5207 250.378 19.8443C250.431 22.0893 251.458 23.2964 253.672 23.7412C254.89 23.9847 256.129 23.8471 257.357 23.8894C257.685 23.8894 257.834 23.7412 257.834 23.4235C257.834 23.0635 257.813 22.714 257.834 22.354C257.897 21.7398 257.611 21.5704 257.039 21.5916C256.224 21.6233 255.419 21.581 254.604 21.6021C253.735 21.6233 253.354 21.2103 253.354 20.3738C253.354 17.4723 253.354 14.5603 253.354 11.6588C253.354 11.1611 253.534 10.9705 254.032 10.9811Z" fill="#062838"/>
<path d="M275.297 21.5809C273.221 21.6551 271.146 21.6021 269.059 21.6021C267.958 21.6021 267.661 21.348 267.64 20.2573C267.619 18.9336 267.64 17.61 267.64 16.2863C267.64 14.9626 267.619 13.639 267.64 12.3153C267.661 11.267 267.937 11.0023 268.996 11.0023C270.913 10.9917 272.83 11.0023 274.746 11.0023C276.218 11.0023 276.197 11.0023 276.187 9.50917C276.187 8.95853 276.081 8.69379 275.445 8.70438C273.168 8.74674 270.902 8.69379 268.625 8.75733C266.211 8.83145 264.728 10.3987 264.717 12.7918C264.707 15.0791 264.717 17.377 264.717 19.6749C264.717 22.2481 266.2 23.7941 268.773 23.8576C270.944 23.9106 273.126 23.8365 275.297 23.9212C276.218 23.953 276.218 23.4976 276.176 22.8623C276.134 22.2587 276.42 21.5492 275.297 21.5915" fill="#062838"/>
<path d="M193.698 13.4801V4.84988C193.698 3.10265 193.698 3.09206 191.993 3.10264C190.563 3.10264 190.722 2.90145 190.722 4.41572C190.722 10.2292 190.722 16.0427 190.722 21.8669C190.722 23.8788 190.722 23.8259 192.777 23.8788C193.603 23.9 193.73 23.6035 193.719 22.8834C193.687 19.749 193.709 16.6146 193.709 13.4801" fill="#062838"/>
<path d="M117.723 8.71495C116.007 8.81026 114.175 8.3761 112.565 10.0492C112.798 8.79967 112.269 8.57729 111.4 8.70437C111.051 8.74672 110.68 8.73613 110.331 8.70437C109.78 8.65142 109.6 8.87379 109.611 9.42444C109.632 14.0096 109.632 18.5948 109.611 23.1799C109.611 23.7517 109.822 23.9212 110.352 23.8682C110.606 23.847 110.871 23.8682 111.136 23.8682C112.117 23.8682 112.608 23.367 112.608 22.3645C112.608 19.0713 112.597 15.778 112.618 12.4847C112.629 11.1823 112.883 10.9916 114.196 11.0022C115.012 11.0022 115.816 11.0022 116.632 11.0022C118.21 11.0022 118.411 10.7481 118.136 9.14911C118.093 8.89497 118.03 8.71496 117.733 8.72554" fill="#062838"/>
<path d="M121.821 10.8328C121.821 8.69381 121.821 8.73617 119.703 8.71499C118.973 8.71499 118.867 8.99031 118.877 9.61508C118.909 11.8071 118.888 13.999 118.888 16.2016V21.8139C118.888 23.8894 118.888 23.8471 120.953 23.8894C121.747 23.9106 121.832 23.6035 121.832 22.9364C121.8 18.9019 121.821 14.8674 121.821 10.8434" fill="#062838"/>
<path d="M262.599 16.3816V10.7693C262.599 8.7044 262.599 8.73617 260.513 8.71499C259.825 8.71499 259.655 8.9056 259.655 9.58331C259.687 13.6496 259.666 17.7159 259.666 21.7822C259.666 23.9106 259.666 23.8788 261.794 23.8788C262.44 23.8788 262.61 23.6882 262.599 23.0635C262.567 20.8397 262.589 18.616 262.589 16.3816" fill="#062838"/>
<path d="M122.139 4.89223C122.149 3.10264 122.139 3.10265 120.275 3.10265C118.57 3.10265 118.559 3.10265 118.57 4.65927C118.591 6.6077 118.305 6.30061 120.286 6.33238C122.361 6.30061 122.118 6.59711 122.139 4.89223Z" fill="#062838"/>
<path d="M261.043 3.10265C259.348 3.10265 259.337 3.10265 259.359 4.66986C259.38 6.59711 259.083 6.30061 261.085 6.33238C262.306 6.33238 262.917 5.8135 262.917 4.77575C262.917 3.738 262.292 3.1803 261.043 3.10265Z" fill="#062838"/>
<path d="M288.408 5.20993C287.222 5.20993 286.205 4.09805 286.205 2.81675C286.205 1.53545 287.169 0.571821 288.408 0.603589C289.658 0.635356 290.494 1.56721 290.494 2.91205C290.494 4.27807 289.626 5.22052 288.408 5.20993ZM288.398 0C286.767 0 285.591 1.16482 285.58 2.81675C285.57 4.53221 286.735 5.80293 288.334 5.8241C289.976 5.84528 291.172 4.62752 291.204 2.93323C291.236 1.23895 290.05 0.0105915 288.387 0.0105915" fill="#062838"/>
<path d="M141.869 14.3697C141.911 13.5966 141.869 12.8236 141.89 12.0506C141.911 11.3623 142.24 10.9811 142.981 10.9811C144.697 10.9917 146.412 11.0023 148.128 10.9811C148.922 10.9705 149.261 11.3835 149.293 12.093C149.335 12.9295 149.293 13.7661 149.325 14.6026C149.335 15.0474 149.134 15.1427 148.742 15.1427C147.704 15.1215 146.666 15.1427 145.639 15.1427C144.633 15.1427 143.627 15.1109 142.631 15.1533C142.017 15.185 141.848 14.9521 141.879 14.3803M151.379 21.5704C148.657 21.6445 145.925 21.6021 143.203 21.5916C142.102 21.5916 141.911 21.3904 141.89 20.2891C141.879 19.6114 141.932 18.9336 141.879 18.2559C141.827 17.5888 142.038 17.3453 142.737 17.3664C144.167 17.4194 145.597 17.377 147.026 17.377C148.456 17.377 150.013 17.3558 151.506 17.3876C152.11 17.3982 152.29 17.197 152.269 16.6146C152.226 15.3862 152.269 14.1579 152.258 12.9295C152.237 10.7481 151.125 9.30799 148.954 8.89501C146.804 8.48202 144.612 8.53497 142.462 8.84206C140.058 9.19151 138.978 10.6528 138.978 13.0884C138.978 15.1533 139.062 17.2288 138.957 19.2831C138.787 22.534 141.149 23.8153 143.436 23.8365C146.094 23.8683 148.763 23.8047 151.421 23.8894C152.491 23.9212 152.258 23.2964 152.258 22.714C152.258 22.121 152.438 21.528 151.4 21.5492" fill="#062838"/>
<path d="M178.734 12.093C178.744 11.3517 179.105 10.9811 179.888 10.9917C181.572 11.0129 183.256 11.0129 184.94 10.9917C185.713 10.9811 186.062 11.3517 186.147 12.0612C186.147 12.1247 186.147 12.1883 186.158 12.2518C186.292 14.1791 185.402 15.1427 183.489 15.1427H182.419C181.413 15.1427 180.407 15.1215 179.412 15.1427C178.935 15.1533 178.692 15.0474 178.723 14.5073C178.766 13.7025 178.723 12.8978 178.744 12.093M188.17 21.5704C185.448 21.6445 182.716 21.5704 179.994 21.6021C179.136 21.6021 178.723 21.2845 178.734 20.4161C178.744 19.6431 178.766 18.8701 178.734 18.0865C178.713 17.5465 178.893 17.3453 179.454 17.3558C180.947 17.3876 182.441 17.3664 183.934 17.3664C185.363 17.3664 186.793 17.3241 188.223 17.3876C188.985 17.4194 189.155 17.1547 189.123 16.4558C189.07 15.2909 189.123 14.1261 189.102 12.9719C189.081 10.727 187.99 9.2974 185.745 8.88442C183.627 8.49262 181.466 8.52439 179.348 8.84207C176.891 9.2021 175.822 10.6422 175.811 13.1413C175.811 15.1745 175.811 17.2076 175.811 19.2407C175.811 22.2163 177.283 23.7624 180.333 23.8365C182.959 23.9 185.596 23.8153 188.223 23.9C189.335 23.9424 189.07 23.2753 189.112 22.6717C189.165 21.9834 189.134 21.5386 188.181 21.5704" fill="#062838"/>
<path d="M232.353 12.5377C232.332 11.1717 231.781 10.0281 230.511 9.32918C228.159 8.03729 224.357 8.64088 222.599 10.5893C220.513 8.27025 216.743 7.9314 213.799 9.83747C214.042 8.65147 213.322 8.6197 212.496 8.69382C212.274 8.715 212.041 8.72559 211.818 8.69382C211.014 8.57734 210.77 8.87384 210.781 9.68922C210.823 13.9885 210.791 18.2877 210.802 22.5764C210.802 24.0589 210.643 23.8259 212.115 23.8471C213.778 23.8577 213.778 23.8471 213.778 22.1528C213.778 18.9548 213.767 15.7569 213.778 12.5589C213.778 11.1823 214.021 10.9917 215.377 10.9811C216.383 10.9811 217.389 10.9811 218.395 10.9811C219.92 10.9811 220.1 11.1505 220.1 12.6436C220.1 15.6828 220.1 18.7219 220.1 21.7504C220.1 23.9 220.1 23.8683 222.229 23.8683C222.885 23.8683 223.044 23.6565 223.034 23.0423C223.002 19.6855 223.023 16.3181 223.023 12.9613C223.023 12.6754 223.023 12.3789 223.055 12.093C223.14 11.3411 223.521 10.9493 224.336 10.9811C225.374 11.0129 226.412 10.9811 227.45 10.9811C229.261 10.9811 229.42 11.1399 229.42 12.9931C229.42 15.9051 229.42 18.8066 229.42 21.7186C229.42 23.9636 229.42 23.9424 231.697 23.8683C232.216 23.8471 232.353 23.6882 232.353 23.1906C232.332 19.6326 232.364 16.0851 232.321 12.5271" fill="#062838"/>
<path d="M198.242 12.0506C198.263 11.3623 198.602 10.9811 199.332 10.9917C201.048 11.0023 202.764 11.0128 204.479 10.9917C205.274 10.9811 205.613 11.4047 205.644 12.1035C205.687 12.9401 205.644 13.7766 205.676 14.6132C205.687 15.058 205.485 15.1533 205.094 15.1427C204.024 15.1215 202.954 15.1427 201.885 15.1427C200.91 15.1427 199.936 15.1215 198.972 15.1427C198.464 15.1533 198.189 15.058 198.22 14.465C198.263 13.6602 198.22 12.8554 198.242 12.0506ZM207.667 21.5704C204.977 21.6445 202.277 21.6021 199.587 21.5915C198.432 21.5915 198.242 21.4009 198.231 20.2361C198.231 19.5584 198.263 18.8807 198.22 18.203C198.178 17.5782 198.39 17.3558 199.036 17.377C200.497 17.4194 201.959 17.3876 203.42 17.3876H205.56C206.311 17.3876 207.053 17.3452 207.794 17.3982C208.451 17.4405 208.62 17.1864 208.599 16.5722C208.557 15.3439 208.599 14.1155 208.588 12.8977C208.557 10.7693 207.445 9.32915 205.327 8.92676C203.145 8.51378 200.921 8.53495 198.739 8.8844C196.335 9.26561 195.297 10.6846 195.297 13.1625C195.297 15.1956 195.297 17.2288 195.297 19.2619C195.297 22.2481 196.77 23.7835 199.82 23.8576C202.446 23.9212 205.083 23.8365 207.709 23.9212C208.821 23.9635 208.557 23.2964 208.599 22.6928C208.641 22.0151 208.62 21.5598 207.678 21.5915" fill="#062838"/>
<path d="M244.055 20.522C244.034 21.2527 243.674 21.6339 242.89 21.6127C242.117 21.581 241.334 21.6127 240.561 21.6127C239.787 21.6127 239.014 21.6021 238.231 21.6127C237.415 21.6339 237.034 21.2315 237.023 20.4479C237.023 19.7067 237.013 18.9654 237.023 18.2242C237.023 17.3982 237.426 16.9958 238.284 17.0064C240.031 17.017 241.778 17.017 243.526 16.9852C243.981 16.9852 244.077 17.1441 244.066 17.5359C244.045 18.5313 244.066 19.5372 244.045 20.5326M246.968 13.3107C246.968 10.4199 245.422 8.83148 242.488 8.73617C240.677 8.68323 238.856 8.69382 237.034 8.70441C235.488 8.70441 235.721 8.43967 235.636 10.1022C235.604 10.8646 235.89 11.0129 236.579 11.0023C238.623 10.9599 240.666 10.9811 242.71 10.9917C243.769 10.9917 244.013 11.2247 244.055 12.3048C244.077 12.8872 244.024 13.4696 244.077 14.052C244.119 14.6026 243.918 14.7827 243.367 14.7615C242.001 14.7297 240.635 14.7509 239.279 14.7509C235.255 14.7509 233.984 16.0534 234.1 20.0667C234.153 21.941 235.17 23.2011 237.013 23.6882C238.326 24.0377 239.66 23.8471 240.984 23.8577C242.128 23.8577 243.176 23.5929 244.045 22.534C243.717 23.9636 244.543 23.9741 245.464 23.8894C245.655 23.8683 245.856 23.8577 246.046 23.8894C246.756 23.9953 247 23.7412 246.989 22.9999C246.947 19.7702 246.968 16.5405 246.968 13.3107Z" fill="#062838"/>
<path d="M103.881 20.3526C103.881 21.1574 103.563 21.6233 102.663 21.6127C101.075 21.581 99.4862 21.6021 97.8976 21.5915C97.2198 21.5915 96.8703 21.2209 96.8597 20.575C96.8386 19.7384 96.8386 18.9019 96.8597 18.0547C96.8809 17.3452 97.2728 16.9958 97.9717 16.9958C98.8507 16.9958 99.7191 16.9958 100.598 16.9958V16.964C101.477 16.964 102.346 16.964 103.225 16.964C103.701 16.964 103.913 17.1229 103.892 17.6417C103.849 18.5418 103.881 19.4525 103.881 20.3526ZM106.783 13.1625C106.783 10.5999 105.406 8.94794 102.843 8.77851C100.577 8.63026 98.3 8.72556 96.0231 8.6938C95.5889 8.6938 95.4406 8.86323 95.4724 9.26562C95.4936 9.5833 95.5042 9.91156 95.4724 10.2292C95.3983 10.8434 95.6842 10.9917 96.2561 10.9811C97.7811 10.9493 99.3061 10.9281 100.831 10.9599C103.934 11.0446 103.913 10.3351 103.892 14.0626C103.892 14.5603 103.754 14.7403 103.235 14.7297C101.869 14.6979 100.503 14.7191 99.1473 14.7191C95.0594 14.7191 93.7779 16.0216 93.9156 20.0773C93.9791 21.888 95.0064 23.1693 96.775 23.6459C97.9929 23.9741 99.2214 23.8153 100.45 23.8259C101.721 23.8365 102.907 23.6564 103.86 22.534C103.595 23.7412 104.178 23.9847 105.131 23.8576C105.353 23.8259 105.586 23.8259 105.809 23.8576C106.55 23.9635 106.815 23.7094 106.804 22.9152C106.762 19.6537 106.783 16.3922 106.783 13.1307" fill="#062838"/>
<path d="M288.27 2.61555C287.963 2.61555 287.921 2.39317 287.953 2.16021C287.984 1.85312 288.196 1.83194 288.44 1.8743C288.662 1.91665 288.874 1.98019 288.874 2.28728C288.8 2.59437 288.524 2.60496 288.281 2.61555M289.139 1.49308C288.111 0.942438 287.296 1.41896 287.296 2.55201V2.83792C287.296 3.18737 287.296 3.5474 287.296 3.89685C287.296 4.11922 287.381 4.26747 287.635 4.25688C287.836 4.25688 287.878 4.11922 287.931 3.94979C288.016 3.66388 287.688 3.1556 288.291 3.13442C288.853 3.12383 288.8 3.61094 288.863 3.97097C288.895 4.15099 288.99 4.24629 289.181 4.25688C289.319 4.25688 289.478 4.22511 289.488 4.09804C289.52 3.35679 289.541 2.62613 289.509 1.88488C289.509 1.74722 289.287 1.5778 289.128 1.49308" fill="#062838"/>
</svg>
